
<svg version="1.0" xmlns="http://www.w3.org/2000/svg"
 width="30" height="30" viewBox="0 0 512.000000 512.000000" 
 preserveAspectRatio="xMidYMid meet">
<metadata>
Created by potrace 1.16, written by Peter Selinger 2001-2019
</metadata>
<g transform="translate(0.000000,512.000000) scale(0.100000,-0.100000)"
fill="#ffffff" stroke="none">
<path d="M3077 5078 c-19 -24 -134 -177 -257 -340 l-222 -298 -187 0 c-128 0
-205 -5 -249 -15 -261 -62 -462 -315 -462 -585 0 -258 178 -496 435 -581 32
-11 248 -14 1055 -19 l1015 -5 57 -28 c62 -30 105 -74 140 -140 33 -61 32
-184 0 -247 -33 -63 -86 -115 -146 -142 -46 -21 -69 -23 -233 -26 l-183 -4 0
189 0 190 -26 24 -26 24 -1228 0 -1228 0 -26 -24 -26 -24 0 -656 0 -656 -88
-40 -87 -40 -552 -3 -553 -2 0 -90 0 -90 510 0 510 0 0 -635 0 -635 -510 0
-510 0 0 -90 0 -90 1654 0 c1573 0 1657 1 1713 18 61 19 1543 901 1614 961 95
79 144 201 137 342 -4 76 -9 97 -41 162 -44 89 -99 142 -196 190 -63 30 -72
32 -181 32 -137 0 -111 11 -558 -228 -161 -87 -295 -157 -297 -157 -3 0 -5
259 -5 575 l0 575 163 0 c89 0 188 4 221 10 217 35 386 236 386 460 0 207
-120 378 -318 453 -57 22 -61 22 -1067 27 -687 4 -1020 9 -1040 16 -115 42
-216 130 -261 228 -109 239 23 513 281 582 32 9 110 14 222 14 l173 0 246
-327 c135 -181 255 -333 267 -340 17 -9 250 -12 990 -13 l968 0 24 25 25 24 0
724 0 724 -23 21 -23 22 -981 0 -982 0 -34 -42z m1863 -728 l0 -590 -868 0
-867 0 -188 250 -187 250 85 0 85 0 20 -39 c60 -119 224 -164 350 -95 86 47
130 123 130 226 -1 108 -51 190 -145 234 -68 32 -152 32 -220 0 -52 -24 -118
-88 -130 -125 -6 -19 -14 -21 -91 -21 -66 0 -83 3 -78 13 4 6 88 119 186 250
l178 237 870 0 870 0 0 -590z m-1645 55 c60 -59 -6 -159 -82 -123 -38 18 -56
58 -43 94 22 57 83 72 125 29z m-1083 -1735 l3 -230 28 -27 27 -28 290 0 290
0 27 28 28 27 3 230 3 230 375 0 374 0 0 -839 0 -839 -55 -31 c-30 -17 -58
-31 -61 -31 -3 0 -4 15 -1 32 7 53 -11 164 -34 210 -49 97 -117 160 -218 200
-54 22 -68 23 -521 28 l-465 6 -90 41 c-49 22 -139 53 -200 69 -100 25 -126
28 -290 28 -99 1 -199 -2 -222 -7 l-43 -7 0 570 0 570 374 0 375 0 3 -230z
m518 60 l0 -170 -170 0 -170 0 0 170 0 170 170 0 170 0 0 -170z m-770 -1159
c105 -28 177 -54 240 -87 l55 -29 475 -5 c462 -5 476 -6 515 -27 155 -83 157
-286 4 -370 -31 -16 -71 -18 -467 -23 l-434 -5 -24 -28 c-35 -41 -29 -100 15
-134 12 -9 139 -12 516 -13 l501 0 554 296 c756 403 720 386 801 382 53 -3 77
-10 115 -34 71 -44 106 -100 111 -183 6 -80 -11 -125 -65 -179 -35 -34 -1425
-876 -1534 -929 l-48 -23 -1045 0 -1045 0 0 650 0 650 56 25 c74 33 172 63
259 80 101 20 346 12 445 -14z"/>
<path d="M4260 4735 c0 -35 -4 -45 -16 -45 -33 0 -87 -35 -115 -73 -52 -72
-47 -174 12 -242 19 -22 78 -58 160 -100 71 -36 129 -70 129 -75 0 -6 -68 -10
-170 -10 l-170 0 0 -90 0 -90 85 0 85 0 0 -45 0 -45 90 0 90 0 0 44 c0 39 3
44 28 49 112 23 177 169 123 275 -27 53 -46 67 -188 141 -69 36 -126 71 -125
76 1 6 67 11 167 13 l165 2 0 90 0 90 -85 0 -85 0 0 40 0 40 -90 0 -90 0 0
-45z"/>
<path d="M522 845 c-117 -36 -181 -124 -181 -250 -1 -157 118 -264 279 -253
59 5 79 11 119 39 189 128 139 418 -81 469 -56 12 -84 12 -136 -5z m127 -188
c35 -29 32 -94 -7 -123 -45 -35 -122 5 -122 63 1 66 77 101 129 60z"/>
</g>
</svg>
