<?xml version="1.0" standalone="no"?>
<!DOCTYPE svg PUBLIC "-//W3C//DTD SVG 20010904//EN"
 "http://www.w3.org/TR/2001/REC-SVG-20010904/DTD/svg10.dtd">
<svg version="1.0" xmlns="http://www.w3.org/2000/svg"
 width="30" height="30" viewBox="0 0 512 512"
 preserveAspectRatio="xMidYMid meet">
<metadata>
Created by potrace 1.16, written by Peter Selinger 2001-2019
</metadata>
<g transform="translate(0.000000,512.000000) scale(0.100000,-0.100000)"
fill="#ffffff" stroke="none">
<path d="M3799 5097 c-37 -13 -86 -36 -110 -52 -23 -17 -756 -750 -1629 -1631
l-1586 -1601 -237 -829 c-146 -510 -237 -846 -237 -873 0 -36 6 -49 34 -77 28
-28 41 -34 78 -34 43 0 1618 443 1683 474 26 12 2922 2872 3163 3124 129 133
166 223 160 380 -5 116 -29 184 -93 269 -69 91 -763 776 -819 808 -121 70
-278 86 -407 42z m262 -242 c19 -9 201 -184 406 -389 278 -277 377 -382 392
-416 25 -54 27 -127 6 -178 -11 -24 -108 -129 -288 -310 l-272 -272 -507 507
-508 508 263 263 c294 297 321 316 418 309 31 -3 71 -13 90 -22z m-728 -933
l207 -207 -1114 -1114 -1114 -1114 -86 171 c-58 116 -94 177 -112 189 -19 12
-56 19 -129 23 l-102 5 1116 1127 c614 620 1118 1127 1121 1127 3 1 98 -92
213 -207z m121 -1473 c-373 -370 -882 -875 -1130 -1122 l-452 -449 -4 104 c-2
78 -8 111 -21 131 -12 19 -72 54 -189 113 l-171 86 1114 1114 1114 1114 209
-209 209 -209 -679 -673z m-2371 -1044 l107 -215 215 -107 215 -108 0 -151 0
-151 -271 -78 -272 -77 -279 280 -280 279 77 272 78 271 151 0 151 0 108 -215z
m-289 -964 c-3 -3 -117 -38 -253 -76 l-247 -71 68 240 c38 133 71 248 74 255
3 10 64 -44 184 -164 99 -99 177 -181 174 -184z"/>
</g>
</svg>
