<?xml version="1.0" standalone="no"?>
<!DOCTYPE svg PUBLIC "-//W3C//DTD SVG 20010904//EN"
 "http://www.w3.org/TR/2001/REC-SVG-20010904/DTD/svg10.dtd">
<svg version="1.0" xmlns="http://www.w3.org/2000/svg"
 width="512.000000pt" height="512.000000pt" viewBox="0 0 512.000000 512.000000"
 preserveAspectRatio="xMidYMid meet">
<metadata>
Created by potrace 1.16, written by Peter Selinger 2001-2019
</metadata>
<g transform="translate(0.000000,512.000000) scale(0.100000,-0.100000)"
fill="#000000" stroke="none">
<path d="M3355 4945 c-82 -18 -178 -63 -250 -118 -33 -25 -551 -538 -1152
-1139 -905 -906 -1095 -1101 -1112 -1141 -31 -71 -351 -1162 -351 -1194 0 -35
31 -88 61 -104 13 -6 39 -12 58 -12 42 0 1144 302 1211 331 35 16 199 175 750
727 396 396 721 715 742 726 22 11 46 35 57 57 25 47 335 357 381 380 19 9 42
32 52 50 9 18 85 104 170 190 169 173 205 226 238 358 39 151 19 333 -51 464
-69 130 -258 314 -384 375 -126 61 -284 80 -420 50z m299 -273 c90 -42 248
-198 292 -287 26 -54 29 -70 29 -160 0 -142 -25 -191 -180 -349 l-117 -119
-324 324 -324 324 108 108 c156 158 237 200 373 194 59 -3 90 -10 143 -35z
m-476 -775 l322 -322 -125 -125 -125 -125 -325 325 -325 325 122 122 c68 68
125 123 128 123 3 0 150 -145 328 -323z m-430 -430 l322 -322 -640 -640 -640
-640 -325 325 -325 325 637 637 c351 351 640 638 643 638 3 0 150 -145 328
-323z m-1463 -1457 c142 -142 257 -261 255 -263 -6 -5 -734 -206 -737 -203 -4
3 212 726 217 726 3 0 122 -117 265 -260z"/>
<path d="M570 387 c-34 -17 -70 -74 -70 -111 0 -41 32 -91 69 -111 27 -13 238
-15 1973 -15 1909 0 1944 0 1975 20 37 22 63 67 63 108 0 35 -37 92 -70 109
-37 19 -3903 19 -3940 0z"/>
</g>
</svg>
