<?xml version="1.0" standalone="no"?>
<!DOCTYPE svg PUBLIC "-//W3C//DTD SVG 20010904//EN"
 "http://www.w3.org/TR/2001/REC-SVG-20010904/DTD/svg10.dtd">
<svg version="1.0" xmlns="http://www.w3.org/2000/svg"
 width="512.000000pt" height="512.000000pt" viewBox="0 0 512.000000 512.000000"
 preserveAspectRatio="xMidYMid meet">
<metadata>
Created by potrace 1.16, written by Peter Selinger 2001-2019
</metadata>
<g transform="translate(0.000000,512.000000) scale(0.100000,-0.100000)"
fill="#000000" stroke="none">
<path d="M1725 5100 c-249 -63 -468 -242 -580 -473 -71 -148 -77 -182 -82
-439 l-5 -228 -354 0 -354 0 -4 -22 c-13 -67 -158 -2704 -153 -2788 16 -281
195 -531 460 -643 137 -57 134 -57 1147 -57 l928 0 93 -93 c186 -183 408 -299
659 -343 142 -24 391 -15 520 19 452 122 778 451 897 905 34 131 42 352 19
497 -97 587 -616 1035 -1202 1035 l-93 0 -5 53 c-3 28 -22 333 -41 677 -19
344 -38 655 -41 693 l-6 67 -354 0 -354 0 0 184 c0 203 -14 307 -57 416 -100
253 -301 441 -563 525 -75 25 -104 28 -240 31 -130 3 -168 0 -235 -16z m355
-305 c202 -54 367 -223 415 -426 10 -44 15 -118 15 -236 l0 -173 -570 0 -570
0 0 181 c0 200 10 261 60 358 72 141 212 255 363 296 69 18 218 18 287 0z
m-1020 -1335 l0 -190 155 0 155 0 0 190 0 190 570 0 570 0 0 -190 0 -190 155
0 155 0 0 190 0 190 210 0 c204 0 210 -1 210 -20 0 -11 16 -289 35 -617 20
-327 34 -597 33 -598 -2 -1 -40 -18 -86 -38 -347 -148 -597 -419 -706 -765
-77 -244 -75 -534 4 -770 l28 -83 -852 3 -851 3 -55 22 c-112 46 -219 153
-260 260 -13 33 -25 90 -27 133 -4 62 112 2156 133 2398 l6 72 209 0 209 0 0
-190z m2883 -1334 c258 -76 463 -247 579 -481 69 -138 98 -261 98 -414 -1
-382 -236 -723 -594 -862 -109 -42 -206 -60 -331 -60 -222 0 -404 64 -582 205
-141 112 -262 296 -314 476 -30 107 -37 308 -15 421 68 332 320 611 643 709
111 34 159 39 298 35 103 -2 148 -9 218 -29z"/>
<path d="M3821 1424 c-151 -156 -277 -283 -282 -282 -4 2 -67 70 -139 151
l-132 149 -32 -29 c-17 -16 -68 -62 -114 -103 -45 -40 -81 -77 -80 -81 6 -13
482 -549 489 -549 4 0 185 184 402 408 l395 409 -106 106 c-59 59 -112 107
-117 107 -6 -1 -133 -129 -284 -286z"/>
</g>
</svg>
