<svg width="120" height="120" viewBox="0 0 120 120" fill="none" xmlns="http://www.w3.org/2000/svg">
<path d="M39.7 42.6C38.0984 42.6 36.8 41.3017 36.8 39.7C36.8 38.0984 38.0984 36.8 39.7 36.8C41.3016 36.8 42.6 38.0984 42.6 39.7C42.6 41.3017 41.3016 42.6 39.7 42.6Z" fill="white" stroke="white" stroke-width="4" stroke-linecap="round" stroke-linejoin="round"/>
<path d="M80.3 42.6C78.6986 42.6 77.4 41.3017 77.4 39.7C77.4 38.0984 78.6986 36.8 80.3 36.8C81.9013 36.8 83.2 38.0984 83.2 39.7C83.2 41.3017 81.9013 42.6 80.3 42.6Z" fill="white" stroke="white" stroke-width="4" stroke-linecap="round" stroke-linejoin="round"/>
<path d="M60 118C92.0322 118 118 92.0322 118 60C118 27.9675 92.0322 2 60 2C27.9675 2 2 27.9675 2 60C2 92.0322 27.9675 118 60 118Z" stroke="white" stroke-width="4" stroke-linecap="round" stroke-linejoin="round"/>
<path d="M33.9 80.3C33.9 80.3 42.6 68.7 60 68.7C77.4 68.7 86.1 80.3 86.1 80.3" stroke="white" stroke-width="4" stroke-linecap="round" stroke-linejoin="round"/>
</svg>
